<?xml version="1.0" standalone="no"?>
<!DOCTYPE svg PUBLIC "-//W3C//DTD SVG 20010904//EN"
 "http://www.w3.org/TR/2001/REC-SVG-20010904/DTD/svg10.dtd">
<svg version="1.0" xmlns="http://www.w3.org/2000/svg"
 width="512.000000pt" height="512.000000pt" viewBox="0 0 512.000000 512.000000"
 preserveAspectRatio="xMidYMid meet">
<metadata>
Created by potrace 1.16, written by Peter Selinger 2001-2019
</metadata>
<g transform="translate(0.000000,512.000000) scale(0.100000,-0.100000)"
fill="#000000" stroke="none">
<path d="M949 4270 c-103 -55 -147 -174 -100 -275 37 -80 84 -105 200 -105 64
0 83 -4 105 -21 29 -23 59 -68 34 -53 -7 5 -63 11 -125 15 -101 5 -116 8 -159
35 -30 18 -60 48 -79 78 -26 44 -30 58 -30 125 0 61 4 84 23 115 20 34 21 41
9 53 -13 13 -17 11 -35 -14 -84 -118 -56 -295 62 -384 63 -48 109 -59 240 -59
101 0 106 -1 111 -22 2 -13 16 -124 29 -248 14 -124 48 -418 75 -655 28 -236
68 -601 91 -810 43 -405 43 -404 103 -449 20 -15 50 -22 110 -27 45 -3 74 -7
64 -7 -33 -3 -67 -51 -67 -96 0 -83 54 -112 185 -100 87 8 89 5 47 -71 -22
-39 -32 -49 -47 -45 -11 3 -49 5 -85 5 -80 0 -132 -24 -177 -83 -120 -157 -9
-372 192 -372 53 0 66 5 107 35 26 19 60 53 75 76 52 79 40 200 -27 264 -17
16 -30 35 -30 42 0 7 15 39 32 71 41 71 51 47 14 -33 l-25 -55 680 0 679 0
-32 -57 c-57 -101 -39 -218 44 -288 95 -80 207 -75 301 14 46 42 67 93 67 161
0 140 -110 241 -247 227 -64 -7 -1425 -9 -1431 -2 -6 6 50 96 63 101 7 3 323
6 703 7 l692 2 30 31 c53 52 37 130 -33 159 -29 12 -25 13 63 12 79 -1 102 3
136 21 49 25 98 72 120 114 9 17 35 163 60 337 24 168 46 318 48 333 7 35 -20
67 -39 46 -7 -7 -22 -85 -34 -173 -40 -295 -73 -499 -83 -520 -21 -41 -73 -85
-119 -100 -40 -14 -90 -15 -335 -10 -159 3 -601 9 -982 13 -668 7 -694 8 -708
26 -16 23 -19 37 -38 226 -45 428 -149 1357 -192 1705 -31 256 -41 287 -102
326 -41 26 -55 29 -124 29 -126 0 -172 38 -172 141 -1 102 67 159 188 159 37
0 81 -6 99 -14 32 -13 97 -78 97 -96 0 -6 -23 -10 -50 -10 -36 0 -52 -4 -56
-15 -10 -26 21 -58 72 -75 l49 -17 5 -61 c3 -42 11 -67 24 -79 18 -18 18 -16
12 67 -4 46 -4 81 -1 78 4 -3 13 -48 21 -99 9 -53 22 -102 31 -111 15 -16 41
-18 285 -18 147 0 268 3 268 8 0 4 -16 27 -35 51 -20 24 -42 68 -51 97 -11 38
-25 62 -51 83 -19 16 -32 34 -29 40 4 6 29 11 56 11 65 0 100 -30 123 -103 11
-36 29 -65 48 -82 l31 -25 914 2 915 3 63 68 c77 82 111 92 61 16 -37 -53 -46
-82 -66 -192 -11 -58 -10 -70 3 -83 23 -23 35 -1 54 96 19 100 32 128 90 190
54 57 143 100 225 107 63 6 89 -5 89 -38 0 -25 -13 -31 -77 -35 -120 -7 -220
-68 -242 -147 -17 -60 -12 -102 14 -102 15 0 23 12 35 60 20 77 23 81 70 105
48 24 59 25 75 4 9 -14 21 -15 60 -9 70 10 125 65 125 125 0 33 -6 48 -29 71
-27 26 -36 29 -96 29 -69 0 -165 -26 -221 -61 -17 -10 -48 -19 -69 -19 -49 0
-103 -32 -138 -81 -15 -22 -39 -44 -53 -49 -36 -14 -1769 -13 -1794 0 -11 6
-26 33 -35 62 -19 65 -38 94 -77 117 -28 18 -50 19 -313 14 l-282 -6 -12 36
c-13 38 -86 112 -127 127 -46 18 -195 11 -235 -10z m816 -284 c14 -9 25 -25
25 -35 0 -11 13 -44 29 -75 l30 -56 -229 0 -228 0 -12 73 c-6 39 -13 83 -16
96 l-5 24 191 -5 c152 -5 195 -9 215 -22z m1178 -2423 c-227 -2 -599 -2 -825
0 -227 1 -42 2 412 2 454 0 639 -1 413 -2z m434 -55 c27 -25 29 -54 6 -80 -15
-17 -55 -18 -854 -18 -748 0 -839 2 -853 16 -20 20 -20 53 0 82 l15 22 831 0
832 0 23 -22z m-1621 -318 l27 -11 -23 -24 c-13 -14 -34 -25 -47 -25 -55 0
-112 -59 -113 -117 -1 -22 -27 -59 -36 -50 -4 4 -9 28 -11 54 -6 68 28 130 87
161 49 24 75 27 116 12z m1676 0 c46 -13 103 -76 112 -123 7 -38 -7 -112 -24
-122 -5 -3 -19 -1 -30 5 -15 8 -20 21 -20 51 0 46 -22 94 -49 109 -11 5 -35
10 -54 10 -40 0 -77 40 -54 58 26 21 69 25 119 12z m-1622 -28 c0 -5 -15 -28
-32 -52 -18 -24 -37 -49 -43 -56 -7 -10 -6 -20 3 -34 10 -17 10 -21 -3 -26
-45 -18 -59 29 -22 77 68 90 97 117 97 91z m1599 -131 c13 -24 -8 -55 -35 -49
-20 3 -30 29 -20 54 8 20 43 17 55 -5z"/>
<path d="M2153 3646 c-40 -18 -63 -62 -63 -123 -1 -46 -2 -49 -43 -68 -31 -15
-48 -32 -65 -65 -21 -43 -22 -53 -20 -265 l3 -220 50 0 50 0 3 243 2 242 81 0
c44 0 89 5 100 10 46 25 2 66 -62 57 l-39 -5 0 58 c0 36 5 62 13 69 10 7 138
12 412 13 364 3 399 4 409 20 25 41 5 43 -407 45 -318 2 -398 0 -424 -11z"/>
<path d="M3806 3542 c-9 -14 -99 -607 -100 -657 -1 -39 3 -50 16 -53 10 -2 19
6 24 20 12 37 112 682 107 691 -6 9 -40 9 -47 -1z"/>
<path d="M3910 3508 c-14 -36 -142 -837 -136 -853 6 -17 32 -20 41 -5 4 6 38
200 76 432 53 322 67 424 58 434 -16 20 -28 17 -39 -8z"/>
<path d="M2833 3463 c-7 -2 -13 -18 -13 -34 l0 -29 100 0 c73 0 100 -3 102
-12 1 -14 3 -116 6 -345 l2 -143 50 0 50 0 0 235 c0 261 -4 279 -63 315 -26
16 -49 20 -127 19 -52 0 -101 -3 -107 -6z"/>
<path d="M3462 2814 c-26 -18 -26 -22 -8 -47 14 -18 16 -18 40 -2 24 16 28 16
51 1 49 -32 22 -110 -57 -164 -72 -49 -105 -62 -156 -62 -26 0 -53 -5 -60 -12
-8 -8 -12 -45 -12 -100 l0 -88 29 0 c32 0 41 17 41 87 l0 42 55 11 c64 13 164
76 208 131 77 98 40 219 -67 219 -23 0 -52 -7 -64 -16z"/>
<path d="M1694 2808 c-5 -7 -8 -111 -6 -235 l3 -223 197 0 c170 0 201 2 222
17 35 24 48 43 60 86 24 85 -17 156 -105 182 l-55 16 0 49 0 50 34 0 c27 0 39
-7 56 -30 12 -16 30 -30 41 -30 31 0 25 53 -10 92 l-29 33 -199 3 c-156 2
-202 0 -209 -10z m246 -112 c0 -68 23 -99 89 -121 27 -9 55 -23 62 -31 19 -23
16 -80 -6 -104 -17 -18 -30 -20 -172 -20 l-153 0 0 165 0 165 90 0 90 0 0 -54z"/>
<path d="M2235 2808 c-3 -7 -4 -115 -3 -238 l3 -225 30 0 30 0 3 103 3 102
104 0 105 0 0 -99 c0 -59 4 -102 11 -106 5 -4 21 -4 35 -1 l24 6 -2 233 -3
232 -30 0 -30 0 -5 -95 -5 -95 -102 -3 -102 -3 -3 98 -3 98 -28 3 c-16 2 -29
-2 -32 -10z"/>
<path d="M2700 2802 c-58 -29 -70 -66 -70 -225 0 -163 10 -195 65 -221 31 -15
58 -17 155 -15 182 6 199 26 199 244 1 206 -24 235 -209 235 -80 0 -113 -4
-140 -18z m256 -66 c17 -13 19 -29 22 -149 l4 -134 -28 -22 c-23 -18 -40 -21
-120 -21 -133 0 -134 1 -134 170 0 169 0 170 138 170 69 0 104 -4 118 -14z"/>
<path d="M3112 2812 c-9 -7 -12 -61 -10 -238 l3 -229 30 0 30 0 3 203 2 202
89 0 c74 0 93 -3 115 -21 30 -24 33 -56 10 -101 -14 -28 -14 -32 0 -46 14 -14
17 -14 37 4 81 73 55 191 -49 222 -44 13 -240 16 -260 4z"/>
<path d="M3670 2415 c-7 -8 -33 -150 -57 -318 -25 -166 -50 -313 -56 -327 -22
-47 -43 -50 -335 -50 -238 0 -273 -2 -279 -16 -13 -35 13 -39 263 -43 165 -2
260 1 292 9 50 12 98 50 113 89 7 18 87 527 102 646 3 24 -25 31 -43 10z"/>
<path d="M1785 2216 c-48 -22 -82 -66 -100 -131 -9 -33 -28 -95 -42 -138 -14
-43 -22 -81 -19 -85 13 -13 40 15 54 56 l14 42 107 0 107 0 15 -47 c8 -25 20
-48 27 -51 26 -8 23 34 -11 141 -20 62 -39 129 -43 150 -5 29 -15 44 -38 58
-36 22 -33 22 -71 5z m61 -23 c-3 -10 6 -54 19 -98 14 -44 25 -83 25 -87 0 -5
-40 -8 -90 -8 -49 0 -90 4 -90 9 0 4 4 21 9 37 5 16 12 42 16 58 3 16 25 47
48 68 45 41 72 50 63 21z"/>
<path d="M3090 2221 l-55 -6 -3 -157 -3 -158 -74 0 -75 0 0 118 c0 133 3 140
73 164 52 19 45 33 -18 36 -80 4 -95 -7 -95 -73 l0 -55 -65 0 -65 0 0 65 0 66
-92 -3 -93 -3 -5 -155 -5 -155 -112 -3 -113 -3 0 161 c0 159 0 161 -21 158
-21 -3 -22 -6 -20 -173 2 -118 6 -172 14 -177 7 -4 71 -8 144 -8 121 0 133 2
143 19 5 11 10 84 10 165 l0 146 55 0 55 0 0 -50 c0 -38 -4 -50 -15 -50 -8 0
-15 -7 -15 -15 0 -9 7 -18 15 -21 12 -5 15 -26 15 -100 0 -87 1 -94 20 -94 19
0 20 7 20 95 l0 96 63 -3 62 -3 5 -90 5 -90 104 -3 c67 -2 108 1 117 9 11 9
14 46 14 166 l0 154 57 -3 c53 -3 58 -5 67 -30 6 -18 6 -38 0 -55 -8 -25 -15
-28 -62 -31 -44 -3 -53 -6 -50 -20 3 -14 14 -16 63 -14 74 4 85 16 85 98 0 37
-5 66 -12 72 -19 15 -75 20 -138 13z"/>
<path d="M3376 2223 c-55 -2 -106 -9 -113 -15 -10 -8 -13 -53 -13 -180 0 -156
1 -169 18 -166 15 3 18 21 22 163 l5 160 102 1 c56 0 105 3 109 7 10 10 -4 37
-18 35 -7 -1 -58 -4 -112 -5z"/>
<path d="M1907 2213 c-16 -15 -5 -23 33 -23 l40 0 2 -162 c3 -155 4 -163 23
-163 19 0 20 8 23 163 l2 162 48 0 c26 0 58 -6 72 -13 24 -12 25 -17 30 -127
4 -93 8 -115 20 -115 12 0 16 21 18 118 3 113 2 118 -22 142 -24 24 -30 25
-154 25 -71 0 -132 -3 -135 -7z"/>
</g>
</svg>